<?xml version="1.0" encoding="UTF-8"?>
<!DOCTYPE svg PUBLIC "-//W3C//DTD SVG 1.1//EN" "http://www.w3.org/Graphics/SVG/1.1/DTD/svg11.dtd">
<!-- Creator: CorelDRAW -->
<svg xmlns="http://www.w3.org/2000/svg" xml:space="preserve" width="24px" height="24px" style="shape-rendering:geometricPrecision; text-rendering:geometricPrecision; image-rendering:optimizeQuality; fill-rule:evenodd; clip-rule:evenodd"
viewBox="0 0 4.25376 4.25376"
 xmlns:xlink="http://www.w3.org/1999/xlink">
 <defs>
  <style type="text/css">
   <![CDATA[
    .fil11 {fill:none}
    .fil6 {fill:white}
    .fil5 {fill:#72706F}
    .fil13 {fill:url(#id3)}
    .fil9 {fill:url(#id4)}
    .fil0 {fill:url(#id5)}
    .fil3 {fill:url(#id6)}
    .fil2 {fill:url(#id7)}
    .fil7 {fill:url(#id8)}
    .fil8 {fill:url(#id9)}
    .fil10 {fill:url(#id10)}
    .fil15 {fill:url(#id11)}
    .fil1 {fill:url(#id12)}
    .fil4 {fill:url(#id13)}
    .fil14 {fill:url(#id14);fill-rule:nonzero}
    .fil12 {fill:url(#id15);fill-rule:nonzero}
    .fil16 {fill:url(#id16);fill-rule:nonzero}
   ]]>
  </style>
   <clipPath id="id0">
    <path d="M-0 0l4.25376 0 0 4.25376 -4.25376 0 0 -4.25376z"/>
   </clipPath>
      <clipPath id="id1">
       <path d="M3.24184 0.407707l0.535163 0.340797 -0.163639 0.583676 -1.08919 0.793113 0 0 0.257978 -1.32243 0.45969 -0.395154z"/>
      </clipPath>
      <clipPath id="id2">
       <path d="M-0 0l4.25376 0 0 4.25376 -4.25376 0 0 -4.25376z"/>
      </clipPath>
  <linearGradient id="id3" gradientUnits="userSpaceOnUse" x1="3.60744" y1="0.0339896" x2="3.60744" y2="0.814369">
   <stop offset="0" style="stop-color:#7C7C7C"/>
   <stop offset="1" style="stop-color:#656565"/>
  </linearGradient>
  <linearGradient id="id4" gradientUnits="userSpaceOnUse" x1="3.15058" y1="0.407695" x2="3.15058" y2="2.12529">
   <stop offset="0" style="stop-color:#C4CCCB"/>
   <stop offset="1" style="stop-color:#859392"/>
  </linearGradient>
  <linearGradient id="id5" gradientUnits="userSpaceOnUse" x1="2.09157" y1="0.235742" x2="2.09157" y2="4.05703">
   <stop offset="0" style="stop-color:#FFEBA8"/>
   <stop offset="1" style="stop-color:#F8BE30"/>
  </linearGradient>
  <linearGradient id="id6" gradientUnits="userSpaceOnUse" xlink:href="#id5" x1="0.993633" y1="0.235742" x2="0.993633" y2="1.20361">
  </linearGradient>
  <linearGradient id="id7" gradientUnits="userSpaceOnUse" x1="2.09157" y1="0.554201" x2="2.09157" y2="3.73857">
   <stop offset="0" style="stop-color:#FFF2C7"/>
   <stop offset="1" style="stop-color:#FFD56B"/>
  </linearGradient>
  <linearGradient id="id8" gradientUnits="userSpaceOnUse" x1="1.79913" y1="2.04868" x2="1.79913" y2="3.55622">
   <stop offset="0" style="stop-color:#1A388A"/>
   <stop offset="1" style="stop-color:#121F3D"/>
  </linearGradient>
  <linearGradient id="id9" gradientUnits="userSpaceOnUse" x1="1.64154" y1="2.5352" x2="1.64154" y2="3.45343">
   <stop offset="0" style="stop-color:#3D4FB8"/>
   <stop offset="1" style="stop-color:#073FBF"/>
  </linearGradient>
  <linearGradient id="id10" gradientUnits="userSpaceOnUse" x1="2.85405" y1="1.07918" x2="2.85405" y2="2.13535">
   <stop offset="0" style="stop-color:#707877"/>
   <stop offset="1" style="stop-color:#424242"/>
  </linearGradient>
  <linearGradient id="id11" gradientUnits="userSpaceOnUse" xlink:href="#id4" x1="2.52417" y1="2.02706" x2="2.52417" y2="2.22351">
  </linearGradient>
  <linearGradient id="id12" gradientUnits="userSpaceOnUse" x1="2.09157" y1="3.8978" x2="2.09157" y2="0.39497">
   <stop offset="0" style="stop-color:#FFEBA8"/>
   <stop offset="1" style="stop-color:#FFFBF0"/>
  </linearGradient>
  <linearGradient id="id13" gradientUnits="userSpaceOnUse" xlink:href="#id12" x1="0.988493" y1="1.03891" x2="0.988493" y2="0.379966">
  </linearGradient>
  <linearGradient id="id14" gradientUnits="userSpaceOnUse" x1="3.60744" y1="0" x2="3.60744" y2="0.848351">
   <stop offset="0" style="stop-color:#3B3B3B"/>
   <stop offset="1" style="stop-color:#1B1B1B"/>
  </linearGradient>
  <linearGradient id="id15" gradientUnits="userSpaceOnUse" x1="3.1468" y1="0.377104" x2="3.1468" y2="2.18212">
   <stop offset="0" style="stop-color:#859392"/>
   <stop offset="1" style="stop-color:#656565"/>
  </linearGradient>
  <linearGradient id="id16" gradientUnits="userSpaceOnUse" xlink:href="#id15" x1="2.52417" y1="2.00343" x2="2.52417" y2="2.24714">
  </linearGradient>
 </defs>
 <g id="Ebene_x0020_1">
  <metadata id="CorelCorpID_0Corel-Layer"/>
  <g>
  </g>
  <g style="clip-path:url(#id0)">
   <g>
    <g id="_168542144">
     <g>
      <path id="_168543800" class="fil0" d="M1.28193 0.235742l2.40182 0 0 3.82129 -3.18437 0 0 -3.00781 0.78255 -0.813481zm0.427506 0l0 0 0 0z"/>
      <polygon id="_168542912" class="fil1" points="0.658612,1.04116 1.29319,0.39497 3.52452,0.39497 3.52452,3.8978 0.658612,3.8978 "/>
      <polygon id="_168542552" class="fil2" points="0.817784,1.05253 1.3524,0.554201 3.36535,0.554201 3.36535,3.73863 0.817784,3.73857 "/>
      <path id="_168542840" class="fil3" d="M1.42608 1.16244c0,0 -0.535423,-0.15446 -0.926694,0.041175l0 -0.154424 0.782546 -0.813445 0.205951 0c-0.278025,0.380999 -0.0618026,0.926694 -0.0618026,0.926694z"/>
      <path id="_168542720" class="fil4" d="M0.66412 1.03891c0.0926618,-0.0205875 0.205947,-0.0309033 0.319196,-0.0309033 0.113249,0 0.216227,0.0103158 0.308925,0.0309033 -0.041175,-0.164736 -0.0720743,-0.422174 0.0205875,-0.658988l-0.648709 0.658988z"/>
     </g>
     <rect id="_168542456" class="fil5" x="1.0104" y="3.32769" width="1.27525" height="0.050355"/>
     <rect id="_168542432" class="fil6" x="1.69215" y="0.917969" width="1.48024" height="0.130131"/>
     <rect id="_168543056" class="fil6" x="1.01075" y="1.23998" width="2.16165" height="0.130131"/>
     <rect id="_168542696" class="fil6" x="1.01075" y="1.56199" width="2.16165" height="0.130131"/>
     <rect id="_168543032" class="fil6" x="1.01075" y="1.88399" width="2.16165" height="0.130131"/>
     <rect id="_168542408" class="fil6" x="1.01075" y="2.206" width="2.16165" height="0.130131"/>
     <path id="_168542384" class="fil7" d="M1.53532 3.07657l-0.32892 -0.342622 -0.219289 0.219261 0.603014 0.603014 1.02103 -1.50754m-1.07583 1.02789l0 0 0 0z"/>
     <path id="_168542312" class="fil8" d="M1.08304 2.95321l0.123329 -0.116492 0.322059 0.342622 0.67157 -0.644141 -0.616713 0.918232m-0.500245 -0.500221l0 0 0 0z"/>
     <g>
      <polygon id="_168541880" class="fil9" points="3.24184,0.407707 3.777,0.748504 3.61336,1.33218 2.52417,2.12529 2.52417,2.12529 2.78215,0.802861 "/>
     </g>
     <g style="clip-path:url(#id1)">
      <g>
       <polygon id="_1685409921" class="fil10" points="3.16815,1.07918 3.19972,1.09929 2.53995,2.13535 2.50838,2.11524 "/>
      </g>
     </g>
     <g style="clip-path:url(#id2)">
      <polygon class="fil11" points="3.24184,0.407707 3.777,0.748504 3.61336,1.33218 2.52417,2.12529 2.52417,2.12529 2.78215,0.802861 "/>
      <path id="_168542216" class="fil12" d="M3.25507 0.386948l0.535163 0.340793 0.0154516 0.00983941 -0.00492771 0.0175893 -0.163635 0.583676 -0.00228572 0.00814213 -0.00698526 0.00508783 -1.08919 0.793109 -0.0507382 0.0369398 0.012013 -0.0615704 0.257982 -1.32242 0.00162522 -0.00834629 0.00658096 -0.00565626 0.459686 -0.39515 0.0138064 -0.0118729 0.0154556 0.00984342zm0.493248 0.372477l-0.504256 -0.321114 -0.439295 0.377624 -0.244344 1.25252 1.03147 -0.751074 0.156422 -0.557952z"/>
      <polygon id="_168541952" class="fil13" points="3.13842,0.34185 3.33446,0.0339936 4.07647,0.506514 3.88043,0.814365 "/>
      <path id="_168542072" class="fil14" d="M3.11765 0.32862l0.196044 -0.307856 0.013222 -0.0207636 0.0207757 0.01323 0.742011 0.472516 0.0207596 0.013218 -0.013226 0.0207757 -0.196048 0.307856 -0.013222 0.0207596 -0.0207716 -0.013226 -0.742015 -0.472516 -0.0207596 -0.013222 0.01323 -0.0207716zm0.224353 -0.260636l-0.1696 0.266325 0.700476 0.446068 0.169604 -0.266321 -0.70048 -0.446072z"/>
      <g>
       <path id="_168542000" class="fil15" d="M2.57694 2.04243c0.0457505,0.029138 0.0592246,0.0898717 0.0300907,0.13563 -0.029138,0.0457545 -0.0898717,0.0592326 -0.13563,0.0300907 -0.0457545,-0.029138 -0.0592326,-0.0898717 -0.0300907,-0.135626 0.0291339,-0.0457585 0.0898717,-0.0592326 0.13563,-0.0300947z"/>
       <path id="_168541784" class="fil16" d="M2.58986 2.02712c0.0262358,0.0175452 0.0432566,0.0438931 0.0496254,0.0725987 0.00654093,0.0294902 0.00182938,0.0614983 -0.0156918,0.0890151 -0.0175172,0.0275087 -0.0445416,0.0453181 -0.0740598,0.0518671 -0.0294902,0.00654093 -0.0615023,0.00182938 -0.0890151,-0.0156878l-0.00214962 -0.00136903 -0.000100075 -0.000100075c-0.0262238,-0.0175372 -0.0432486,-0.0438891 -0.0496174,-0.0725907 -0.00654093,-0.0294902 -0.00183338,-0.0615023 0.0156838,-0.0890151l0.00136503 -0.00214962 0.000116087 -0.000112084c0.0175332,-0.0262198 0.0438811,-0.0432406 0.0725827,-0.0496094 0.0294902,-0.00654093 0.0614983,-0.00183338 0.0890151,0.0156878l0.00214161 0.00136503 0.000104078 0.000100075zm0.0107881 0.0811732c-0.00433927,-0.0195667 -0.0161562,-0.0374842 -0.0343979,-0.049105l-0.000112084 -7.20543e-005c-0.0182137,-0.0115527 -0.0394137,-0.014651 -0.0589644,-0.0103118 -0.0195627,0.00433927 -0.0374842,0.0161522 -0.049097,0.0343939l-0.0001321 0.000208157c-0.0115047,0.0181897 -0.014587,0.0393536 -0.0102597,0.0588683 0.00434327,0.0195667 0.0161562,0.0374842 0.0343979,0.049101l0.00012009 7.60573e-005c0.0182097,0.0115527 0.0394097,0.014651 0.0589524,0.0103118 0.0195627,-0.00433927 0.0374882,-0.0161522 0.049105,-0.0343979 0.0116127,-0.0182377 0.0147351,-0.0394857 0.0103878,-0.0590725z"/>
      </g>
     </g>
    </g>
   </g>
  </g>
  <polygon class="fil11" points="-0,0 4.25376,0 4.25376,4.25376 -0,4.25376 "/>
 </g>
</svg>
