<svg xmlns="http://www.w3.org/2000/svg" version="1.0" width="446" height="432" preserveAspectRatio="xMidYMid meet" style="user-select: auto;"><rect id="backgroundrect" width="100%" height="100%" x="0" y="0" fill="none" stroke="none" style="user-select: auto;"/>
<metadata style="user-select: auto;">
Created by potrace 1.15, written by Peter Selinger 2001-2017
</metadata>

<g class="currentLayer" style="user-select: auto;"><title style="user-select: auto;">Layer 1</title><g transform="translate(0,432) scale(0.10000000149011612,-0.10000000149011612) " fill="#5c77db" stroke="none" id="svg_1" style="user-select: auto;" class="selected" fill-opacity="1" filter="url(#f170)">
<path d="M2040 3964 c-192 -34 -269 -51 -359 -81 -521 -173 -971 -622 -1144 -1143 -71 -212 -82 -294 -82 -585 0 -235 2 -271 24 -370 75 -352 227 -638 478 -897 266 -273 572 -443 938 -520 99 -21 137 -23 370 -23 290 0 373 12 580 80 541 179 989 637 1159 1182 60 190 71 279 71 548 0 223 -3 262 -23 360 -77 366 -234 657 -502 925 -229 231 -478 380 -775 465 -163 47 -235 56 -475 60 -129 2 -246 1 -260 -1z m340 -745 c135 -31 263 -135 325 -263 43 -89 55 -155 55 -298 l0 -108 68 0 c108 -1 171 -39 208 -129 11 -27 14 -129 14 -552 0 -508 0 -520 -21 -564 -12 -25 -34 -56 -51 -70 -63 -53 -83 -55 -704 -55 -382 0 -590 4 -625 11 -59 13 -124 65 -146 116 -17 41 -19 1075 -2 1120 14 38 67 92 106 109 26 11 123 14 493 14 l460 0 -1 123 c-1 142 -15 193 -71 261 -82 97 -237 128 -351 69 -83 -42 -157 -148 -157 -225 0 -21 -4 -38 -10 -38 -5 -1 -49 -1 -97 -1 l-88 -1 -3 36 c-4 44 20 132 55 200 54 107 197 216 319 245 54 12 170 13 224 0z" id="svg_2" style="user-select: auto;" fill="#5c77db" fill-opacity="1" filter="url(#f170)"/>
<path d="M1690 1870 l0 -480 575 0 575 0 0 480 0 480 -575 0 -575 0 0 -480z m658 181 c103 -53 147 -161 103 -256 -72 -158 -277 -167 -359 -15 -86 161 96 353 256 271z" id="svg_3" style="user-select: auto;" fill="#5c77db" fill-opacity="1" filter="url(#f170)"/>
</g></g><defs style="user-select: auto;"><filter id="f170" xmlns:inkscape="http://www.inkscape.org/namespaces/inkscape" inkscape:label="Darken edges" inkscape:menu="Shadows and Glows" inkscape:menu-tooltip="Darken the edges with an inner blur" color-interpolation-filters="sRGB" style="user-select: auto;">
            <feGaussianBlur result="result6" stdDeviation="1.5" style="user-select: auto;"/>
            <feComposite in2="result6" operator="atop" in="SourceGraphic" result="result8" style="user-select: auto;"/>
            <feComposite in="result8" in2="SourceAlpha" operator="atop" result="result9" style="user-select: auto;"/>
        </filter></defs></svg>