<?xml version="1.0" encoding="UTF-8"?>
<!DOCTYPE svg PUBLIC "-//W3C//DTD SVG 1.1//EN" "http://www.w3.org/Graphics/SVG/1.1/DTD/svg11.dtd">
<!-- Creator: CorelDRAW -->
<svg xmlns="http://www.w3.org/2000/svg" xml:space="preserve" width="24px" height="24px" style="shape-rendering:geometricPrecision; text-rendering:geometricPrecision; image-rendering:optimizeQuality; fill-rule:evenodd; clip-rule:evenodd"
viewBox="0 0 1.10246 1.10246"
 xmlns:xlink="http://www.w3.org/1999/xlink"
 version="1.1">
 <defs>
  <style type="text/css">
   <![CDATA[
    .fil2 {fill:none}
    .fil0 {fill:black}
    .fil1 {fill:black;fill-rule:nonzero}
   ]]>
  </style>
   <clipPath id="id0">
    <path d="M-0 0l1.10246 0 0 1.10246 -1.10246 0 0 -1.10246z"/>
   </clipPath>
 </defs>
 <g id="Ebene_x0020_1">
  <metadata id="CorelCorpID_0Corel-Layer"/>
  <g>
  </g>
  <g style="clip-path:url(#id0)">
   <g>
    <g id="_179333536">
     <g>
      <path id="_179333392" class="fil0" d="M0.986135 0.223749l-0.20893 -0.20893c-0.0103723,-0.0103723 -0.0237075,-0.0148189 -0.0385263,-0.0148189l-0.585314 0c-0.0311123,0 -0.0548243,0.0237075 -0.0548243,0.0548289l0 0 0 0.992801c0,0.0311169 0.0237029,0.0548289 0.0548243,0.0548289l0 0 0.795722 -9.18715e-006c0.0311169,0 0.0548289,-0.0237029 0.0548289,-0.0548289l0 0 0 -0.783862c-0.00296286,-0.0148189 -0.00740944,-0.0296378 -0.0177817,-0.0400101zm-0.268205 -0.124468l0.185222 0.185222 -0.185222 0 0 -0.185222zm-0.540857 0.92612l0 -0.951312 0.457879 0 0 0.231158c0,0.0326006 0.0251912,0.0563081 0.0563081,0.0563081l0.231158 0 0 0.662362 -0.745345 0.00148373 0 0z"/>
     </g>
    </g>
    <path class="fil1" d="M0.272927 0.228916c-0.0223753,0 -0.0405154,-0.01814 -0.0405154,-0.0405154 0,-0.0223753 0.01814,-0.0405154 0.0405154,-0.0405154l0.204341 0c0.0223753,0 0.0405154,0.01814 0.0405154,0.0405154 0,0.0223753 -0.01814,0.0405154 -0.0405154,0.0405154l-0.204341 0z"/>
    <path class="fil1" d="M0.272927 0.83864c-0.0223753,0 -0.0405154,-0.01814 -0.0405154,-0.0405154 0,-0.0223753 0.01814,-0.0405154 0.0405154,-0.0405154l0.319727 0c-0.0266152,0.0303727 -0.051618,0.0588897 -0.071251,0.0810307l-0.00500241 0 -0.0448655 -0.0317784 5.51229e-005 -7.34972e-005c-0.0161924,-0.0115666 -0.0352465,-0.0156779 -0.0534509,-0.0132019 -0.0182503,0.00248513 -0.0355864,0.011608 -0.0481591,0.0264636l-0.00205792 0.00268724c-0.00359218,0.00502997 -0.00645857,0.0103723 -0.00864052,0.015903l-0.0863547 0zm0.517636 -0.0810307l0.0232389 0c0.0223753,0 0.0405154,0.01814 0.0405154,0.0405154 0,0.0223753 -0.01814,0.0405154 -0.0405154,0.0405154l-0.0954959 0 0.0028618 -0.0032155c0.0240612,-0.0270056 0.0480213,-0.053901 0.0693952,-0.0778152z"/>
    <path class="fil1" d="M0.272927 0.389692c-0.0223753,0 -0.0405154,-0.01814 -0.0405154,-0.0405154 0,-0.0223753 0.01814,-0.0405154 0.0405154,-0.0405154l0.283497 0c0.0223753,0 0.0405154,0.01814 0.0405154,0.0405154 0,0.0223753 -0.01814,0.0405154 -0.0405154,0.0405154l-0.283497 0z"/>
    <path class="fil1" d="M0.272927 0.550467c-0.0223753,0 -0.0405154,-0.01814 -0.0405154,-0.0405154 0,-0.0223753 0.01814,-0.0405154 0.0405154,-0.0405154l0.543503 0c0.0223753,0 0.0405154,0.01814 0.0405154,0.0405154 0,0.0223753 -0.01814,0.0405154 -0.0405154,0.0405154l-0.543503 0z"/>
    <path class="fil0" d="M0.422444 0.825617c0.0103631,-0.00141023 0.021204,0.000927903 0.0304095,0.00750591l-9.18715e-006 1.37807e-005 0.0715725 0.0506993c0.0206206,-0.0228714 0.0583384,-0.0659224 0.098987,-0.112308 0.0591285,-0.0674751 0.124445,-0.142015 0.152066,-0.171543 0.00349112,-0.00416178 0.00796067,-0.00759778 0.0128804,-0.0099405l3.2155e-005 0c0.00491972,-0.00233813 0.0103539,-0.00367486 0.0158065,-0.00367486 0.00864052,0 0.0169962,0.00239325 0.0239968,0.00683065l-9.18715e-006 1.37807e-005c0.00688577,0.0043639 0.0124578,0.0106801 0.0157514,0.0185948 0.00330278,0.00792851 0.00426284,0.0165553 0.00288477,0.0248329 -0.00135051,0.00812145 -0.00496106,0.0159122 -0.0107949,0.0223983l-9.18715e-005 9.64651e-005c-0.0226004,0.0241806 -0.0805116,0.0891797 -0.139025,0.154854 -0.0597349,0.067057 -0.120127,0.134844 -0.144964,0.161368l-0.000445577 0.000440983c-0.00827303,0.007584 -0.0164588,0.0103264 -0.0246399,0.00978891l-3.2155e-005 0c-0.0077953,-0.000519074 -0.015044,-0.00406532 -0.0220905,-0.00918715l-2.75615e-005 -3.2155e-005 -0.10218 -0.0752887 -0.000445577 -0.000344518c-0.00860377,-0.00728082 -0.0138818,-0.0175612 -0.015315,-0.0283056 -0.00141482,-0.0106204 0.000923309,-0.0217506 0.00749672,-0.0309561l0.000408828 -0.000537449c0.00728082,-0.00860836 0.0172856,-0.013891 0.0277774,-0.0153196z"/>
   </g>
  </g>
  <polygon class="fil2" points="-0,0 1.10246,0 1.10246,1.10246 -0,1.10246 "/>
 </g>
</svg>
